<svg width="25" height="27" viewBox="0 0 25 27" fill="none" xmlns="http://www.w3.org/2000/svg">
<path d="M21.3753 6.99375H19.3255C19.1899 6.99571 19.056 6.9642 18.9355 6.90202C18.815 6.83984 18.7117 6.7489 18.6348 6.63727L17.3871 4.69886C17.1604 4.34984 16.8501 4.06304 16.4843 3.86458C16.1185 3.66612 15.7089 3.56229 15.2927 3.56255H9.63345C9.21989 3.55985 8.8125 3.66281 8.44987 3.86167C8.08725 4.06053 7.78142 4.34869 7.56136 4.69886L6.29137 6.63727C6.21944 6.7486 6.12031 6.83975 6.00336 6.90213C5.88641 6.9645 5.75549 6.99604 5.62296 6.99375H3.43947C2.99819 6.97872 2.55843 7.05307 2.14662 7.21233C1.73481 7.37158 1.35946 7.61246 1.04311 7.92048C0.726767 8.2285 0.475969 8.5973 0.30579 9.00472C0.13561 9.41214 0.0495641 9.84976 0.0528236 10.2913V23.5036C0.0525692 23.9433 0.140832 24.3785 0.31235 24.7833C0.483869 25.1881 0.735133 25.5542 1.05116 25.8599C1.3672 26.1655 1.74153 26.4044 2.15185 26.5623C2.56217 26.7202 3.00007 26.7938 3.43947 26.7789H21.4867C21.9168 26.7789 22.3427 26.6942 22.7401 26.5296C23.1374 26.365 23.4985 26.1237 23.8026 25.8196C24.1068 25.5154 24.348 25.1544 24.5126 24.757C24.6772 24.3596 24.7619 23.9337 24.7619 23.5036V10.2913C24.7652 9.84976 24.6792 9.41214 24.509 9.00472C24.3388 8.5973 24.088 8.2285 23.7717 7.92048C23.4553 7.61246 23.08 7.37158 22.6681 7.21233C22.2563 7.05307 21.8166 6.97872 21.3753 6.99375ZM22.9795 23.5036C22.9795 23.9291 22.8105 24.3371 22.5096 24.638C22.2088 24.9388 21.8008 25.1078 21.3753 25.1078H3.43947C3.01401 25.1078 2.60597 24.9388 2.30513 24.638C2.00428 24.3371 1.83527 23.9291 1.83527 23.5036V10.2913C1.83523 9.86374 2.00353 9.45338 2.30375 9.14899C2.60397 8.84459 3.01197 8.67065 3.43947 8.66479H5.66752C6.07787 8.66379 6.48165 8.5616 6.84308 8.36729C7.20451 8.17297 7.51245 7.89251 7.73961 7.55077L9.0096 5.61236C9.08042 5.49834 9.17873 5.40392 9.29551 5.33774C9.41229 5.27157 9.54381 5.23576 9.67802 5.23359H15.3373C15.4745 5.23603 15.609 5.27177 15.7294 5.33776C15.8497 5.40374 15.9522 5.49798 16.028 5.61236L17.2757 7.55077C17.5078 7.89288 17.8198 8.17317 18.1848 8.3673C18.5498 8.56144 18.9566 8.66356 19.37 8.66479H21.4199C21.8474 8.67065 22.2554 8.84459 22.5556 9.14899C22.8558 9.45338 23.0241 9.86374 23.0241 10.2913L22.9795 23.5036Z" fill="black"/>
<path d="M12.3515 11.5859C11.3248 11.5859 10.3211 11.8904 9.46736 12.4608C8.61364 13.0313 7.94825 13.8421 7.55533 14.7907C7.16241 15.7393 7.0596 16.7831 7.25991 17.7901C7.46022 18.7971 7.95465 19.7221 8.68067 20.4482C9.4067 21.1742 10.3317 21.6686 11.3387 21.8689C12.3458 22.0692 13.3896 21.9664 14.3382 21.5735C15.2868 21.1806 16.0976 20.5152 16.668 19.6615C17.2384 18.8078 17.5429 17.8041 17.5429 16.7773C17.5429 15.4005 16.9959 14.08 16.0224 13.1065C15.0488 12.1329 13.7284 11.5859 12.3515 11.5859ZM12.3515 20.2976C11.6553 20.2976 10.9747 20.0912 10.3957 19.7043C9.81682 19.3175 9.36561 18.7677 9.09917 18.1245C8.83272 17.4812 8.76301 16.7734 8.89884 16.0905C9.03467 15.4076 9.36995 14.7804 9.86228 14.2881C10.3546 13.7957 10.9819 13.4605 11.6647 13.3246C12.3476 13.1888 13.0554 13.2585 13.6987 13.5249C14.3419 13.7914 14.8917 14.2426 15.2786 14.8215C15.6654 15.4004 15.8718 16.081 15.8718 16.7773C15.8718 17.2396 15.7808 17.6974 15.6039 18.1245C15.427 18.5516 15.1677 18.9397 14.8408 19.2665C14.5139 19.5934 14.1258 19.8527 13.6987 20.0297C13.2716 20.2066 12.8138 20.2976 12.3515 20.2976Z" fill="black"/>
<path d="M21.019 5.48303C21.5125 5.48303 21.995 5.33667 22.4054 5.06247C22.8157 4.78827 23.1356 4.39854 23.3244 3.94256C23.5133 3.48659 23.5627 2.98484 23.4664 2.50078C23.3702 2.01671 23.1325 1.57207 22.7835 1.22308C22.4345 0.87409 21.9899 0.636424 21.5058 0.540137C21.0217 0.443851 20.52 0.493269 20.064 0.682141C19.608 0.871014 19.2183 1.19086 18.9441 1.60123C18.6699 2.0116 18.5236 2.49406 18.5236 2.98761C18.5236 3.64943 18.7865 4.28415 19.2545 4.75214C19.7224 5.22012 20.3572 5.48303 21.019 5.48303ZM21.019 2.16323C21.2376 2.16323 21.4473 2.25008 21.6019 2.40468C21.7565 2.55928 21.8434 2.76897 21.8434 2.98761C21.8464 3.0967 21.8272 3.20528 21.7869 3.30669C21.7465 3.4081 21.6859 3.5002 21.6087 3.57738C21.5316 3.65455 21.4395 3.71516 21.3381 3.7555C21.2366 3.79584 21.1281 3.81506 21.019 3.81199C20.8003 3.81199 20.5907 3.72513 20.4361 3.57053C20.2815 3.41593 20.1946 3.20625 20.1946 2.98761C20.2002 2.77075 20.2889 2.56432 20.4423 2.41092C20.5957 2.25753 20.8021 2.16886 21.019 2.16323Z" fill="black"/>
</svg>
