<svg width="23" height="16" viewBox="0 0 23 16" fill="none" xmlns="http://www.w3.org/2000/svg">
<path d="M14.5329 1.53193C14.6448 1.53205 14.7556 1.55394 14.8589 1.59635C14.9622 1.63876 15.056 1.70086 15.1349 1.77908L21.4457 7.92162L15.1426 14.2143C15.0637 14.295 14.9691 14.3592 14.8644 14.4031C14.7598 14.447 14.6472 14.4696 14.5334 14.4696C14.4194 14.4705 14.3062 14.4492 14.2006 14.4068C14.0949 14.3644 13.9988 14.3019 13.9178 14.2227C13.8368 14.1435 13.7725 14.0493 13.7286 13.9455C13.6847 13.8416 13.6622 13.7303 13.6622 13.6178V10.4794C13.6622 10.4794 12.5562 9.93457 10.6862 9.93457C8.50383 9.93457 5.28026 10.676 1.55423 13.8895C1.55423 13.8895 3.28386 5.36431 13.6622 5.36431V2.38624C13.6618 2.27361 13.6841 2.16203 13.7278 2.05796C13.7715 1.95389 13.8357 1.8594 13.9167 1.77994C13.9977 1.70049 14.0938 1.63766 14.1996 1.59509C14.3054 1.55252 14.4187 1.53105 14.5329 1.53193ZM14.5329 1.25344e-06C13.9153 -0.000621643 13.3206 0.230938 12.8701 0.647497C12.6278 0.869537 12.4349 1.1388 12.3038 1.4382C12.1726 1.73761 12.106 2.06062 12.1081 2.38675V3.89468C10.1154 4.05655 8.30025 4.53605 6.69702 5.32448C5.06782 6.12414 3.63574 7.26537 2.50115 8.66818C0.559137 11.0646 0.0520076 13.4871 0.0302513 13.5892C-0.0335179 13.9032 0.004089 14.2289 0.137788 14.5207C0.271488 14.8125 0.49456 15.0556 0.775662 15.216C1.05676 15.3763 1.38177 15.4458 1.70501 15.4147C2.02825 15.3836 2.33348 15.2535 2.57782 15.0425C6.00444 12.0864 8.87835 11.468 10.6862 11.468C11.1636 11.4665 11.64 11.5122 12.1081 11.6044V13.6178C12.1066 13.9435 12.1735 14.2659 12.3048 14.5647C12.436 14.8636 12.6287 15.1323 12.8706 15.354C13.3216 15.7697 13.9161 16.0007 14.5334 16C14.8529 16.0003 15.1692 15.9376 15.4637 15.8155C15.7581 15.6934 16.0248 15.5145 16.2481 15.2892L22.5517 8.99805C22.6951 8.85489 22.8085 8.68529 22.8854 8.49892C22.9623 8.31255 23.0013 8.11307 23 7.91187C22.9987 7.71067 22.9572 7.51169 22.8779 7.3263C22.7985 7.14091 22.683 6.97274 22.5377 6.83139L16.2263 0.68937C15.7767 0.247594 15.1677 -0.000328945 14.5329 1.25344e-06Z" fill="white"/>
</svg>
