<svg width="18" height="10" viewBox="0 0 18 10" fill="none" xmlns="http://www.w3.org/2000/svg">
<path d="M17.4614 0.288953C17.1552 0.0780016 16.7613 -0.0235608 16.3656 0.00639207C15.97 0.0363449 15.6045 0.195386 15.3489 0.448867L9.00008 6.79677L2.65115 0.448972C2.39629 0.194495 2.03055 0.0348125 1.6344 0.00505139C1.23825 -0.0247097 0.844142 0.0778887 0.538769 0.290276C0.233396 0.502664 0.0417752 0.807443 0.00606169 1.13757C-0.0296518 1.46769 0.0934672 1.79611 0.348334 2.05059L7.84866 9.55078C7.98936 9.69139 8.16543 9.80451 8.3644 9.88214C8.56337 9.95976 8.78038 10 9.00008 10C9.21977 10 9.43678 9.95976 9.63575 9.88214C9.83472 9.80451 10.0108 9.69139 10.1515 9.55078L17.6518 2.05048C17.9066 1.79575 18.0296 1.46716 17.9939 1.13689C17.9582 0.806612 17.7667 0.501644 17.4614 0.288953Z" fill="black"/>
</svg>
