<svg width="16" height="9" viewBox="0 0 16 9" fill="none" xmlns="http://www.w3.org/2000/svg">
<path d="M15.5212 0.260058C15.249 0.0702014 14.899 -0.0212047 14.5472 0.00575286C14.1955 0.0327104 13.8707 0.175847 13.6435 0.40398L8.00007 6.11709L2.35658 0.404074C2.13003 0.175046 1.80493 0.0313312 1.4528 0.00454625C1.10067 -0.0222387 0.750348 0.0700998 0.478906 0.261249C0.207463 0.452397 0.0371335 0.726699 0.00538817 1.02381C-0.0263572 1.32092 0.083082 1.6165 0.30963 1.84553L6.97659 8.59571C7.10166 8.72225 7.25816 8.82406 7.43502 8.89392C7.61188 8.96379 7.80478 9 8.00007 9C8.19535 9 8.38825 8.96379 8.56511 8.89392C8.74197 8.82406 8.89848 8.72225 9.02354 8.59571L15.6905 1.84544C15.917 1.61617 16.0264 1.32045 15.9946 1.0232C15.9629 0.725951 15.7926 0.45148 15.5212 0.260058Z" fill="#07A189"/>
</svg>
