<svg width="22" height="21" viewBox="0 0 22 21" fill="none" xmlns="http://www.w3.org/2000/svg">
<path d="M19.6941 15.5057C20.5688 13.9692 21.0362 12.2347 21.0521 10.4668C21.0679 8.69885 20.6317 6.95621 19.7847 5.40431V5.31371C18.8786 3.70168 17.5598 2.35986 15.9637 1.42602C14.3676 0.492188 12.5517 0 10.7025 0C8.85329 0 7.0374 0.492188 5.4413 1.42602C3.8452 2.35986 2.5264 3.70168 1.62034 5.31371V5.40431C0.787773 6.93314 0.351563 8.64622 0.351562 10.387C0.351563 12.1279 0.787773 13.841 1.62034 15.3698V15.4604C2.52238 17.0747 3.83782 18.4198 5.43159 19.3576C7.02537 20.2954 8.84004 20.7922 10.6893 20.7968C12.5385 20.8014 14.3556 20.3137 15.954 19.3839C17.5525 18.454 18.8746 17.1154 19.7847 15.5057H19.6941ZM10.6346 18.9936H10.3628C9.29103 17.7548 8.46132 16.3258 7.91671 14.7809C8.77736 14.6903 9.68331 14.645 10.6346 14.645C11.5858 14.645 12.4918 14.6903 13.3524 14.7809C12.8078 16.3258 11.9781 17.7548 10.9063 18.9936H10.6346ZM10.6346 12.8331C9.56 12.8342 8.48632 12.8947 7.41843 13.0143C7.06205 11.2809 7.06205 9.49316 7.41843 7.75978C8.48632 7.87937 9.56 7.93986 10.6346 7.94097C11.7091 7.93986 12.7828 7.87937 13.8507 7.75978C14.2071 9.49316 14.2071 11.2809 13.8507 13.0143C12.7828 12.8947 11.7091 12.8342 10.6346 12.8331ZM2.02802 10.387C2.03662 9.1832 2.29901 7.99469 2.79808 6.89913C3.52284 7.08032 4.47409 7.30681 5.65183 7.5333C5.2782 9.43269 5.2782 11.3867 5.65183 13.2861C4.47409 13.4673 3.52284 13.7391 2.79808 13.9203C2.29275 12.8108 2.03021 11.6062 2.02802 10.387ZM10.6346 1.7805H10.9063C11.9781 3.01932 12.8078 4.44828 13.3524 5.99318C12.4918 6.08377 11.5858 6.12907 10.6346 6.12907C9.68331 6.12907 8.77736 6.08377 7.91671 5.99318C8.46132 4.44828 9.29103 3.01932 10.3628 1.7805H10.6346ZM15.6626 7.488C16.8403 7.30681 17.7916 7.03502 18.5163 6.85383C19.0154 7.95689 19.2736 9.15368 19.2736 10.3644C19.2736 11.5751 19.0154 12.7719 18.5163 13.875C17.7916 13.6938 16.8403 13.4673 15.6626 13.2408C16.0362 11.3414 16.0362 9.3874 15.6626 7.488ZM17.5651 5.22312L15.2096 5.72139C14.8155 4.50882 14.2675 3.35183 13.5789 2.27878C15.1555 2.87056 16.5251 3.90958 17.5198 5.26842L17.5651 5.22312ZM7.73552 2.27878C7.04692 3.35183 6.49887 4.50882 6.1048 5.72139L3.74933 5.26842C4.75614 3.90254 6.14236 2.86287 7.73552 2.27878ZM3.74933 15.5057L6.1048 15.0074C6.49887 16.22 7.04692 17.377 7.73552 18.45C6.14812 17.8782 4.76254 16.8548 3.74933 15.5057ZM13.5789 18.45C14.2675 17.377 14.8155 16.22 15.2096 15.0074L17.5651 15.5057C16.5462 16.8787 15.1433 17.919 13.5336 18.4953L13.5789 18.45Z" fill="#07A189"/>
</svg>
