<svg width="37" height="28" viewBox="0 0 37 28" fill="none" xmlns="http://www.w3.org/2000/svg">
<path d="M33.3036 27.4695H3.66598C1.94024 27.4695 0.514648 26.0439 0.514648 24.3182V3.15915C0.514648 1.43342 1.94024 0.0078125 3.66598 0.0078125H33.3036C35.0294 0.0078125 36.455 1.43342 36.455 3.15915V24.3182C36.455 26.0439 35.0294 27.4695 33.3036 27.4695ZM3.59097 2.03367C2.99071 2.03367 2.5405 2.48386 2.5405 3.08412V24.2432C2.5405 24.8434 2.99071 25.2936 3.59097 25.2936H33.2286C33.8288 25.2936 34.279 24.8434 34.279 24.2432V3.08412C34.279 2.48386 33.8288 2.03367 33.2286 2.03367H3.59097Z" fill="#07A189" fill-opacity="0.43"/>
<path d="M23.7742 12.5387C21.4482 12.5387 19.6475 10.6629 19.6475 8.41192C19.6475 6.16096 21.5233 4.28516 23.7742 4.28516C26.0252 4.28516 27.901 6.16096 27.901 8.41192C27.901 10.6629 26.0252 12.5387 23.7742 12.5387ZM23.7742 6.16096C22.5737 6.16096 21.5983 7.13637 21.5983 8.33688C21.5983 9.53739 22.5737 10.5128 23.7742 10.5128C24.9747 10.5128 25.9501 9.53739 25.9501 8.33688C25.9501 7.13637 24.9747 6.16096 23.7742 6.16096Z" fill="#07A189" fill-opacity="0.43"/>
<path d="M29.4016 27.0964L12.0693 10.8144L2.16502 19.9683L0.814453 18.5427L12.0693 8.11328L30.7522 25.6708L29.4016 27.0964Z" fill="#07A189" fill-opacity="0.43"/>
<path d="M34.8038 21.6913L29.0263 17.0394L24.2243 21.0161L22.9487 19.4404L29.0263 14.4883L36.0043 20.1907L34.8038 21.6913Z" fill="#07A189" fill-opacity="0.43"/>
</svg>
