<svg width="42" height="42" viewBox="0 0 42 42" fill="none" xmlns="http://www.w3.org/2000/svg">
<path d="M20.9844 15.9414C19.9838 15.9414 19.0056 16.2381 18.1736 16.794C17.3417 17.35 16.6932 18.1401 16.3103 19.0646C15.9274 19.989 15.8272 21.0062 16.0224 21.9876C16.2176 22.969 16.6994 23.8705 17.407 24.578C18.1145 25.2856 19.016 25.7674 19.9974 25.9627C20.9788 26.1579 21.996 26.0577 22.9205 25.6748C23.8449 25.2918 24.6351 24.6434 25.191 23.8114C25.7469 22.9794 26.0436 22.0013 26.0436 21.0006C26.042 19.6594 25.5084 18.3735 24.56 17.425C23.6116 16.4766 22.3257 15.9431 20.9844 15.9414Z" fill="black"/>
<path d="M26.9366 8.11328H15.0328C13.194 8.11541 11.4311 8.8468 10.1309 10.147C8.83069 11.4472 8.09929 13.2101 8.09717 15.0489V26.9527C8.09929 28.7915 8.83069 30.5544 10.1309 31.8546C11.4311 33.1548 13.194 33.8862 15.0328 33.8883H26.9366C28.7754 33.8862 30.5383 33.1548 31.8385 31.8546C33.1387 30.5544 33.8701 28.7915 33.8722 26.9527V15.0489C33.8701 13.2101 33.1387 11.4472 31.8385 10.147C30.5383 8.8468 28.7754 8.11541 26.9366 8.11328ZM20.9847 28.7328C19.4555 28.7328 17.9606 28.2793 16.689 27.4297C15.4175 26.5801 14.4265 25.3725 13.8413 23.9597C13.2561 22.5469 13.1029 20.9922 13.4013 19.4924C13.6996 17.9925 14.436 16.6148 15.5174 15.5335C16.5987 14.4521 17.9764 13.7157 19.4763 13.4174C20.9761 13.1191 22.5308 13.2722 23.9436 13.8574C25.3564 14.4426 26.564 15.4336 27.4136 16.7051C28.2632 17.9767 28.7167 19.4716 28.7167 21.0008C28.7143 23.0507 27.8989 25.016 26.4494 26.4655C24.9999 27.915 23.0346 28.7304 20.9847 28.7328ZM29.4809 14.4407C29.1034 14.4407 28.7344 14.3287 28.4204 14.1191C28.1065 13.9094 27.8618 13.6113 27.7172 13.2626C27.5726 12.9139 27.5346 12.5301 27.6081 12.1598C27.6815 11.7895 27.8631 11.4493 28.1299 11.1821C28.3966 10.915 28.7366 10.7329 29.1068 10.659C29.477 10.585 29.8608 10.6224 30.2098 10.7665C30.5587 10.9106 30.8571 11.1549 31.0672 11.4686C31.2774 11.7822 31.3898 12.1511 31.3903 12.5286C31.3908 12.7797 31.3417 13.0283 31.246 13.2604C31.1503 13.4925 31.0097 13.7034 30.8323 13.8811C30.655 14.0587 30.4443 14.1997 30.2125 14.2959C29.9806 14.392 29.732 14.4416 29.4809 14.4416V14.4407Z" fill="black"/>
<path d="M41.9284 9.82684C41.9259 9.07042 41.8566 8.3157 41.7215 7.57145C41.5485 6.6627 41.305 5.77714 40.8698 4.95578C40.4165 4.09041 39.8266 3.30383 39.1227 2.62638C38.0596 1.58562 36.7463 0.836211 35.3094 0.450363C33.9868 0.0936399 32.6339 0.0187279 31.2775 0.0205116C31.273 0.0145339 31.2702 0.00744103 31.2695 0H10.6919C10.6919 0.00713447 10.6919 0.0142689 10.6919 0.0205116C9.92048 0.0347805 9.14728 0.0285378 8.38032 0.123961C7.53927 0.212883 6.71127 0.398413 5.91269 0.676883C4.6707 1.13501 3.54973 1.87073 2.63529 2.82792C1.58708 3.89317 0.832237 5.21146 0.444121 6.65467C0.0927481 7.96742 0.0160525 9.30602 0.0142689 10.6544L0 31.315C0.0249706 32.2469 0.0329969 33.1878 0.189955 34.1117C0.356723 35.0927 0.594836 36.0478 1.04966 36.9378C1.65458 38.1304 2.51657 39.1739 3.57348 39.9931C4.32792 40.5945 5.18261 41.0579 6.09819 41.3621C7.4466 41.7973 8.83782 41.964 10.2496 41.9721C11.1307 41.9774 12.01 41.9997 12.8911 41.9962C19.2889 41.9694 25.6876 42.0425 32.0855 41.9569C32.9307 41.9384 33.7728 41.8489 34.6031 41.6894C36.1731 41.4128 37.6342 40.7016 38.8204 39.6364C40.2277 38.3808 41.1775 36.8451 41.6064 34.991C41.8873 33.779 41.9569 32.5492 41.9694 31.3159V31.0697C41.9685 30.9734 41.9319 10.1033 41.9284 9.82684ZM36.5436 26.9496C36.5406 29.4968 35.5274 31.9388 33.7263 33.74C31.9253 35.5412 29.4834 36.5546 26.9362 36.5579H15.0323C12.485 36.5548 10.0428 35.5415 8.24159 33.7403C6.44034 31.939 5.42705 29.4969 5.42398 26.9496V15.0457C5.42705 12.4983 6.44034 10.0562 8.24159 8.25496C10.0428 6.45371 12.485 5.44042 15.0323 5.43736H26.9362C29.4835 5.44042 31.9257 6.45371 33.7269 8.25496C35.5282 10.0562 36.5415 12.4983 36.5445 15.0457L36.5436 26.9496Z" fill="black"/>
</svg>
