<svg width="428" height="186" viewBox="0 0 428 186" fill="none" xmlns="http://www.w3.org/2000/svg">
<path d="M854.54 109.767C841.447 124.397 826.304 131.429 811.799 138.208C797.293 144.987 783.527 151.399 771.56 164.772C759.49 178.259 754.742 192.535 749.609 207.701C744.476 222.867 739.162 238.696 726.07 253.326C712.977 267.956 697.834 274.987 683.328 281.766C668.823 288.545 655.057 294.957 643.09 308.33C631.02 321.817 626.272 336.093 621.139 351.26C616.006 366.426 610.692 382.254 597.6 396.884C584.507 411.514 569.364 418.546 554.858 425.325C540.353 432.104 526.587 438.516 514.62 451.889C502.55 465.376 497.802 479.652 492.669 494.818C487.536 509.984 482.222 525.812 469.13 540.443C463.402 546.843 456.759 552.426 448.884 557.316L444.829 550.806C452.181 546.271 458.198 541.158 463.415 535.328C475.484 521.841 480.232 507.565 485.365 492.399C490.499 477.233 495.812 461.405 508.905 446.774C521.997 432.144 537.141 425.113 551.646 418.334C566.152 411.555 579.917 405.143 591.885 391.77C603.954 378.283 608.702 364.007 613.836 348.84C618.969 333.674 624.282 317.846 637.375 303.216C650.467 288.586 665.611 281.554 680.116 274.775C694.622 267.996 708.388 261.584 720.355 248.211C732.425 234.724 737.173 220.448 742.306 205.282C747.439 190.116 752.753 174.288 765.845 159.657C778.938 145.027 794.081 137.996 808.587 131.217C823.092 124.438 836.858 118.026 848.825 104.653C854.042 98.8238 858.344 92.1763 862.153 84.4699L869.071 87.7794C865.082 96.1476 860.37 103.252 854.54 109.767Z" fill="#078874" fill-opacity="0.49"/>
<path d="M826.421 84.6071C813.328 99.2372 798.185 106.269 783.679 113.048C769.174 119.827 755.408 126.239 743.441 139.612C731.371 153.099 726.623 167.375 721.49 182.541C716.357 197.707 711.043 213.535 697.951 228.166C684.858 242.796 669.715 249.827 655.209 256.606C640.704 263.385 626.938 269.797 614.971 283.17C602.901 296.657 598.153 310.933 593.02 326.099C587.887 341.266 582.573 357.094 569.481 371.724C556.388 386.354 541.245 393.386 526.739 400.165C512.233 406.944 498.468 413.356 486.501 426.728C474.431 440.216 469.683 454.492 464.55 469.658C459.417 484.824 454.103 500.652 441.01 515.282C435.282 521.683 428.64 527.266 420.764 532.156L416.71 525.646C424.062 521.111 430.079 515.997 435.295 510.168C447.365 496.681 452.113 482.405 457.246 467.239C462.379 452.072 467.693 436.244 480.786 421.614C493.878 406.984 509.021 399.952 523.527 393.174C538.033 386.395 551.798 379.983 563.766 366.61C575.835 353.123 580.583 338.847 585.716 323.68C590.85 308.514 596.163 292.686 609.256 278.056C622.348 263.426 637.492 256.394 651.997 249.615C666.503 242.836 680.268 236.424 692.236 223.051C704.305 209.564 709.053 195.288 714.187 180.122C719.32 164.956 724.633 149.127 737.726 134.497C750.818 119.867 765.962 112.836 780.467 106.057C794.973 99.2777 808.739 92.8657 820.706 79.4928C825.922 73.6636 830.225 67.0161 834.034 59.3097L840.952 62.6193C836.962 70.9874 832.251 78.0921 826.421 84.6071Z" fill="#078874" fill-opacity="0.49"/>
<path d="M798.302 59.4352C785.209 74.0654 770.066 81.0969 755.56 87.8759C741.055 94.6548 727.289 101.067 715.322 114.44C703.252 127.927 698.504 142.203 693.371 157.369C688.238 172.535 682.924 188.363 669.832 202.994C656.739 217.624 641.596 224.655 627.09 231.434C612.585 238.213 598.819 244.625 586.852 257.998C574.782 271.485 570.034 285.761 564.901 300.928C559.768 316.094 554.454 331.922 541.362 346.552C528.269 361.182 513.126 368.214 498.62 374.993C484.115 381.772 470.349 388.184 458.382 401.557C446.312 415.044 441.564 429.32 436.431 444.486C431.298 459.652 425.984 475.48 412.891 490.111C407.164 496.511 400.521 502.094 392.646 506.984L388.591 500.474C395.943 495.939 401.96 490.826 407.177 484.996C419.246 471.509 423.994 457.233 429.127 442.067C434.261 426.901 439.574 411.072 452.667 396.442C465.759 381.812 480.903 374.781 495.408 368.002C509.914 361.223 523.679 354.811 535.647 341.438C547.716 327.951 552.464 313.675 557.598 298.508C562.731 283.342 568.044 267.514 581.137 252.884C594.229 238.254 609.373 231.222 623.878 224.443C638.384 217.664 652.15 211.252 664.117 197.879C676.187 184.392 680.935 170.116 686.068 154.95C691.201 139.784 696.515 123.956 709.607 109.325C722.7 94.6953 737.843 87.6637 752.348 80.8847C766.854 74.1058 780.62 67.6938 792.587 54.321C797.804 48.4917 802.106 41.8443 805.915 34.1379L812.833 37.4474C808.843 45.8155 804.132 52.9202 798.302 59.4352Z" fill="#078874" fill-opacity="0.49"/>
<path d="M770.188 34.2868C757.095 48.917 741.952 55.9485 727.446 62.7274C712.941 69.5063 699.175 75.9184 687.208 89.2912C675.138 102.778 670.39 117.054 665.257 132.221C660.124 147.387 654.81 163.215 641.718 177.845C628.625 192.475 613.482 199.507 598.976 206.286C584.47 213.065 570.705 219.477 558.738 232.85C546.668 246.337 541.92 260.613 536.787 275.779C531.654 290.945 526.34 306.774 513.247 321.404C500.155 336.034 485.012 343.065 470.506 349.844C456 356.623 442.235 363.035 430.267 376.408C418.198 389.895 413.45 404.171 408.317 419.338C403.183 434.504 397.87 450.332 384.777 464.962C379.049 471.363 372.407 476.945 364.531 481.836L360.477 475.326C367.829 470.79 373.846 465.677 379.062 459.848C391.132 446.361 395.88 432.085 401.013 416.918C406.146 401.752 411.46 385.924 424.552 371.294C437.645 356.664 452.788 349.632 467.294 342.853C481.8 336.074 495.565 329.662 507.532 316.289C519.602 302.802 524.35 288.526 529.483 273.36C534.616 258.194 539.93 242.366 553.023 227.735C566.115 213.105 581.259 206.074 595.764 199.295C610.27 192.516 624.035 186.104 636.003 172.731C648.072 159.244 652.82 144.968 657.953 129.802C663.087 114.635 668.4 98.8071 681.493 84.177C694.585 69.5468 709.729 62.5153 724.234 55.7363C738.74 48.9574 752.505 42.5454 764.473 29.1726C769.689 23.3433 773.991 16.6958 777.8 8.98942L784.719 12.299C780.729 20.6671 776.018 27.7718 770.188 34.2868Z" fill="#078874" fill-opacity="0.49"/>
<path d="M742.069 9.11881C728.976 23.749 713.833 30.7805 699.327 37.5594C684.822 44.3384 671.056 50.7504 659.089 64.1233C647.019 77.6105 642.271 91.8864 637.138 107.053C632.005 122.219 626.691 138.047 613.598 152.677C600.506 167.307 585.363 174.339 570.857 181.118C556.351 187.897 542.586 194.309 530.618 207.682C518.549 221.169 513.801 235.445 508.668 250.611C503.534 265.777 498.221 281.606 485.128 296.236C472.036 310.866 456.892 317.897 442.387 324.676C427.881 331.455 414.116 337.867 402.148 351.24C390.079 364.727 385.331 379.003 380.197 394.17C375.064 409.336 369.751 425.164 356.658 439.794C350.93 446.195 344.288 451.777 336.412 456.668L332.358 450.158C339.71 445.622 345.727 440.509 350.943 434.68C363.013 421.193 367.761 406.917 372.894 391.75C378.027 376.584 383.341 360.756 396.433 346.126C409.526 331.496 424.669 324.464 439.175 317.685C453.68 310.906 467.446 304.494 479.413 291.121C491.483 277.634 496.231 263.358 501.364 248.192C506.497 233.026 511.811 217.198 524.903 202.567C537.996 187.937 553.139 180.906 567.645 174.127C582.151 167.348 595.916 160.936 607.883 147.563C619.953 134.076 624.701 119.8 629.834 104.634C634.967 89.4672 640.281 73.6392 653.374 59.009C666.466 44.3789 681.609 37.3473 696.115 30.5683C710.621 23.7894 724.386 17.3774 736.354 4.00456C741.57 -1.82468 745.872 -8.47217 749.681 -16.1786L756.6 -12.869C752.61 -4.50086 747.899 2.6038 742.069 9.11881Z" fill="#078874" fill-opacity="0.49"/>
<path d="M713.953 -16.0413C700.861 -1.41119 685.717 5.62034 671.212 12.3993C656.706 19.1782 642.941 25.5902 630.973 38.9631C618.904 52.4503 614.156 66.7262 609.022 81.8926C603.889 97.0589 598.576 112.887 585.483 127.517C572.391 142.147 557.247 149.179 542.742 155.958C528.236 162.737 514.471 169.149 502.503 182.522C490.434 196.009 485.685 210.285 480.552 225.451C475.419 240.617 470.105 256.445 457.013 271.076C443.92 285.706 428.777 292.737 414.272 299.516C399.766 306.295 386 312.707 374.033 326.08C361.963 339.567 357.215 353.843 352.082 369.009C346.949 384.176 341.635 400.004 328.543 414.634C322.815 421.035 316.173 426.617 308.297 431.508L304.243 424.998C311.595 420.462 317.611 415.349 322.828 409.52C334.898 396.033 339.646 381.757 344.779 366.59C349.912 351.424 355.226 335.596 368.318 320.966C381.411 306.336 396.554 299.304 411.06 292.525C425.565 285.746 439.331 279.334 451.298 265.961C463.368 252.474 468.116 238.198 473.249 223.032C478.382 207.866 483.696 192.037 496.788 177.407C509.881 162.777 525.024 155.746 539.53 148.967C554.035 142.188 567.801 135.776 579.768 122.403C591.838 108.916 596.586 94.6397 601.719 79.4734C606.852 64.3071 612.166 48.479 625.258 33.8489C638.351 19.2187 653.494 12.1871 668 5.40819C682.505 -1.37072 696.271 -7.78272 708.238 -21.1556C713.455 -26.9848 717.757 -33.6323 721.566 -41.3387L728.484 -38.0292C724.495 -29.661 719.784 -22.5564 713.953 -16.0413Z" fill="#078874" fill-opacity="0.49"/>
<path d="M685.835 -41.2015C672.742 -26.5713 657.599 -19.5398 643.093 -12.7609C628.588 -5.98195 614.822 0.430087 602.855 13.803C590.785 27.2901 586.037 41.5661 580.904 56.7324C575.771 71.8987 570.457 87.7268 557.365 102.357C544.272 116.987 529.129 124.019 514.623 130.798C500.118 137.577 486.352 143.989 474.385 157.361C462.315 170.849 457.567 185.125 452.434 200.291C447.301 215.457 441.987 231.285 428.895 245.915C415.802 260.546 400.659 267.577 386.153 274.356C371.648 281.135 357.882 287.547 345.915 300.92C333.845 314.407 329.097 328.683 323.964 343.849C318.831 359.016 313.517 374.844 300.424 389.474C294.696 395.875 288.054 401.457 280.179 406.347L276.124 399.838C283.476 395.302 289.493 390.189 294.71 384.36C306.779 370.872 311.527 356.596 316.66 341.43C321.794 326.264 327.107 310.436 340.2 295.806C353.292 281.175 368.436 274.144 382.941 267.365C397.447 260.586 411.212 254.174 423.18 240.801C435.249 227.314 439.997 213.038 445.131 197.872C450.264 182.705 455.577 166.877 468.67 152.247C481.762 137.617 496.906 130.585 511.411 123.807C525.917 117.028 539.682 110.616 551.65 97.2427C563.719 83.7555 568.468 69.4796 573.601 54.3132C578.734 39.1469 584.048 23.3189 597.14 8.68871C610.232 -5.94144 625.376 -12.973 639.881 -19.752C654.387 -26.5309 668.153 -32.9429 680.12 -46.3158C685.337 -52.145 689.639 -58.7925 693.448 -66.4989L700.366 -63.1893C696.376 -54.8212 691.665 -47.7165 685.835 -41.2015Z" fill="#078874" fill-opacity="0.49"/>
<path d="M657.715 -66.3695C644.623 -51.7393 629.48 -44.7078 614.974 -37.9288C600.468 -31.1499 586.703 -24.7379 574.736 -11.365C562.666 2.12218 557.918 16.3981 552.785 31.5644C547.652 46.7307 542.338 62.5588 529.245 77.189C516.153 91.8191 501.01 98.8507 486.504 105.63C471.998 112.409 458.233 118.821 446.265 132.193C434.196 145.681 429.448 159.957 424.315 175.123C419.181 190.289 413.868 206.117 400.775 220.747C387.683 235.378 372.539 242.409 358.034 249.188C343.528 255.967 329.763 262.379 317.795 275.752C305.726 289.239 300.978 303.515 295.844 318.681C290.711 333.848 285.398 349.676 272.305 364.306C266.577 370.707 259.935 376.289 252.059 381.179L248.005 374.67C255.357 370.134 261.374 365.021 266.59 359.192C278.66 345.704 283.408 331.428 288.541 316.262C293.674 301.096 298.988 285.268 312.08 270.638C325.173 256.007 340.316 248.976 354.822 242.197C369.327 235.418 383.093 229.006 395.06 215.633C407.13 202.146 411.878 187.87 417.011 172.704C422.144 157.537 427.458 141.709 440.55 127.079C453.643 112.449 468.786 105.417 483.292 98.6385C497.798 91.8596 511.563 85.4476 523.53 72.0747C535.6 58.5875 540.348 44.3116 545.481 29.1453C550.614 13.979 555.928 -1.84911 569.021 -16.4793C582.113 -31.1094 597.256 -38.141 611.762 -44.9199C626.268 -51.6988 640.033 -58.1108 652.001 -71.4837C657.217 -77.3129 661.519 -83.9604 665.328 -91.6668L672.247 -88.3573C668.257 -79.9891 663.546 -72.8845 657.715 -66.3695Z" fill="#078874" fill-opacity="0.49"/>
<path d="M629.6 -91.5296C616.508 -76.8995 601.364 -69.8679 586.859 -63.089C572.353 -56.3101 558.587 -49.898 546.62 -36.5252C534.55 -23.038 529.802 -8.76204 524.669 6.40428C519.536 21.5706 514.222 37.3987 501.13 52.0288C488.037 66.659 472.894 73.6905 458.388 80.4695C443.883 87.2484 430.117 93.6604 418.15 107.033C406.08 120.52 401.332 134.796 396.199 149.963C391.066 165.129 385.752 180.957 372.66 195.587C359.567 210.217 344.424 217.249 329.918 224.028C315.413 230.807 301.647 237.219 289.68 250.592C277.61 264.079 272.862 278.355 267.729 293.521C262.596 308.687 257.282 324.516 244.19 339.146C238.462 345.546 231.819 351.129 223.944 356.019L219.889 349.509C227.241 344.974 233.258 339.861 238.475 334.031C250.544 320.544 255.292 306.268 260.426 291.102C265.559 275.936 270.872 260.108 283.965 245.477C297.057 230.847 312.201 223.816 326.706 217.037C341.212 210.258 354.977 203.846 366.945 190.473C379.014 176.986 383.762 162.71 388.896 147.544C394.029 132.377 399.342 116.549 412.435 101.919C425.527 87.2889 440.671 80.2573 455.176 73.4784C469.682 66.6994 483.448 60.2874 495.415 46.9145C507.485 33.4274 512.233 19.1514 517.366 3.98511C522.499 -11.1812 527.813 -27.0093 540.905 -41.6394C553.998 -56.2696 569.141 -63.3011 583.647 -70.0801C598.152 -76.859 611.918 -83.271 623.885 -96.6439C629.102 -102.473 633.404 -109.121 637.213 -116.827L644.131 -113.517C640.142 -105.149 635.43 -98.0446 629.6 -91.5296Z" fill="#078874" fill-opacity="0.49"/>
<path d="M601.482 -116.69C588.389 -102.06 573.246 -95.0281 558.74 -88.2491C544.235 -81.4702 530.469 -75.0582 518.502 -61.6853C506.432 -48.1981 501.684 -33.9222 496.551 -18.7559C491.418 -3.58957 486.104 12.2385 473.011 26.8687C459.919 41.4988 444.776 48.5304 430.27 55.3093C415.764 62.0882 401.999 68.5003 390.031 81.8731C377.962 95.3603 373.214 109.636 368.081 124.803C362.948 139.969 357.634 155.797 344.541 170.427C331.449 185.057 316.305 192.089 301.8 198.868C287.294 205.647 273.529 212.059 261.561 225.432C249.492 238.919 244.744 253.195 239.611 268.361C234.477 283.527 229.164 299.355 216.071 313.986C210.343 320.386 203.701 325.969 195.825 330.859L191.771 324.349C199.123 319.814 205.14 314.701 210.356 308.871C222.426 295.384 227.174 281.108 232.307 265.942C237.44 250.776 242.754 234.947 255.846 220.317C268.939 205.687 284.082 198.656 298.588 191.877C313.093 185.098 326.859 178.686 338.826 165.313C350.896 151.826 355.644 137.55 360.777 122.383C365.91 107.217 371.224 91.3891 384.317 76.7589C397.409 62.1287 412.552 55.0972 427.058 48.3182C441.564 41.5393 455.329 35.1273 467.297 21.7544C479.366 8.26723 484.114 -6.00871 489.247 -21.175C494.381 -36.3413 499.694 -52.1694 512.787 -66.7996C525.879 -81.4297 541.023 -88.4613 555.528 -95.2402C570.034 -102.019 583.799 -108.431 595.767 -121.804C600.983 -127.633 605.285 -134.281 609.094 -141.987L616.013 -138.678C612.023 -130.309 607.312 -123.205 601.482 -116.69Z" fill="#078874" fill-opacity="0.49"/>
<path d="M573.367 -141.85C560.274 -127.22 545.131 -120.188 530.625 -113.409C516.12 -106.63 502.354 -100.218 490.387 -86.8455C478.317 -73.3583 473.569 -59.0824 468.436 -43.916C463.303 -28.7497 457.989 -12.9216 444.896 1.7085C431.804 16.3387 416.661 23.3702 402.155 30.1491C387.649 36.9281 373.884 43.3401 361.916 56.713C349.847 70.2002 345.099 84.4761 339.966 99.6424C334.833 114.809 329.519 130.637 316.426 145.267C303.334 159.897 288.19 166.929 273.685 173.708C259.179 180.487 245.414 186.899 233.446 200.271C221.377 213.759 216.629 228.035 211.496 243.201C206.362 258.367 201.049 274.195 187.956 288.825C182.228 295.226 175.586 300.809 167.71 305.699L163.656 299.189C171.008 294.654 177.025 289.54 182.241 283.711C194.311 270.224 199.059 255.948 204.192 240.782C209.325 225.615 214.639 209.787 227.731 195.157C240.824 180.527 255.967 173.495 270.473 166.717C284.978 159.938 298.744 153.526 310.711 140.153C322.781 126.666 327.529 112.39 332.662 97.2233C337.795 82.0569 343.109 66.2289 356.202 51.5987C369.294 36.9686 384.437 29.937 398.943 23.1581C413.449 16.3791 427.214 9.96712 439.182 -3.40576C451.251 -16.8929 455.999 -31.1689 461.132 -46.3352C466.266 -61.5015 471.579 -77.3296 484.672 -91.9597C497.764 -106.59 512.908 -113.621 527.413 -120.4C541.919 -127.179 555.684 -133.591 567.652 -146.964C572.868 -152.793 577.17 -159.441 580.979 -167.147L587.898 -163.838C583.908 -155.47 579.197 -148.365 573.367 -141.85Z" fill="#078874" fill-opacity="0.49"/>
<path d="M545.247 -167.018C532.155 -152.388 517.011 -145.356 502.506 -138.577C488 -131.798 474.235 -125.386 462.267 -112.013C450.198 -98.5263 445.45 -84.2503 440.316 -69.084C435.183 -53.9177 429.87 -38.0896 416.777 -23.4595C403.685 -8.8293 388.541 -1.79775 374.036 4.98118C359.53 11.7601 345.764 18.1721 333.797 31.545C321.727 45.0322 316.979 59.3081 311.846 74.4744C306.713 89.6408 301.399 105.469 288.307 120.099C275.214 134.729 260.071 141.761 245.566 148.54C231.06 155.319 217.294 161.731 205.327 175.103C193.257 188.591 188.509 202.867 183.376 218.033C178.243 233.199 172.929 249.027 159.837 263.657C154.109 270.058 147.466 275.641 139.591 280.531L135.537 274.021C142.889 269.486 148.905 264.372 154.122 258.543C166.192 245.056 170.94 230.78 176.073 215.614C181.206 200.447 186.52 184.619 199.612 169.989C212.705 155.359 227.848 148.327 242.354 141.549C256.859 134.77 270.625 128.358 282.592 114.985C294.662 101.498 299.41 87.2216 304.543 72.0553C309.676 56.889 314.99 41.0609 328.082 26.4308C341.175 11.8006 356.318 4.76904 370.824 -2.0099C385.329 -8.78883 399.095 -15.2008 411.062 -28.5737C423.132 -42.0609 427.88 -56.3368 433.013 -71.5032C438.146 -86.6695 443.46 -102.498 456.552 -117.128C469.645 -131.758 484.788 -138.789 499.294 -145.568C513.799 -152.347 527.565 -158.759 539.532 -172.132C544.749 -177.961 549.051 -184.609 552.86 -192.315L559.778 -189.006C555.789 -180.638 551.078 -173.533 545.247 -167.018Z" fill="#078874" fill-opacity="0.49"/>
<path d="M517.129 -192.178C504.036 -177.548 488.893 -170.516 474.387 -163.737C459.882 -156.959 446.116 -150.546 434.149 -137.174C422.079 -123.686 417.331 -109.41 412.198 -94.2442C407.065 -79.0778 401.751 -63.2498 388.659 -48.6196C375.566 -33.9895 360.423 -26.9579 345.917 -20.179C331.412 -13.4 317.646 -6.98803 305.679 6.38486C293.609 19.872 288.861 34.148 283.728 49.3143C278.595 64.4806 273.281 80.3087 260.189 94.9388C247.096 109.569 231.953 116.601 217.447 123.379C202.942 130.158 189.176 136.57 177.209 149.943C165.139 163.43 160.391 177.706 155.258 192.873C150.125 208.039 144.811 223.867 131.718 238.497C125.99 244.898 119.348 250.48 111.472 255.371L107.418 248.861C114.349 244.566 120.48 239.555 125.697 233.726C137.766 220.239 142.514 205.963 147.647 190.796C152.781 175.63 158.094 159.802 171.187 145.172C184.279 130.542 199.423 123.51 213.928 116.731C228.434 109.952 242.199 103.54 254.167 90.1675C266.236 76.6803 270.984 62.4044 276.118 47.238C281.251 32.0717 286.564 16.2437 299.657 1.61349C312.749 -13.0167 327.893 -20.0482 342.398 -26.8272C356.904 -33.6061 370.67 -40.0181 382.637 -53.391C394.707 -66.8782 399.455 -81.1541 404.588 -96.3204C409.721 -111.487 415.035 -127.315 428.127 -141.945C441.22 -156.575 456.363 -163.607 470.869 -170.386C485.374 -177.165 499.14 -183.577 511.107 -196.949C516.324 -202.779 520.626 -209.426 524.435 -217.132L531.353 -213.823C527.67 -205.798 522.959 -198.693 517.129 -192.178Z" fill="#078874" fill-opacity="0.49"/>
<path d="M489.015 -217.338C475.922 -202.708 460.779 -195.677 446.273 -188.898C431.768 -182.119 418.002 -175.707 406.035 -162.334C393.965 -148.847 389.217 -134.571 384.084 -119.404C378.951 -104.238 373.637 -88.4099 360.544 -73.7798C347.452 -59.1496 332.309 -52.1181 317.803 -45.3391C303.297 -38.5602 289.532 -32.1482 277.564 -18.7753C265.495 -5.28812 260.747 8.98782 255.614 24.1541C250.48 39.3204 245.167 55.1485 232.074 69.7787C218.982 84.4089 203.838 91.4404 189.333 98.2193C174.827 104.998 161.062 111.41 149.094 124.783C137.025 138.27 132.277 152.546 127.143 167.713C122.01 182.879 116.697 198.707 103.604 213.337C97.8762 219.738 91.2338 225.32 83.3582 230.211L79.3039 223.701C86.6561 219.165 92.6727 214.052 97.8892 208.223C109.959 194.736 114.707 180.46 119.84 165.293C124.973 150.127 130.287 134.299 143.379 119.669C156.472 105.039 171.615 98.0072 186.121 91.2282C200.626 84.4493 214.392 78.0373 226.359 64.6644C238.429 51.1773 243.177 36.9013 248.31 21.735C253.443 6.56866 258.757 -9.25939 271.85 -23.8896C284.942 -38.5197 300.085 -45.5513 314.591 -52.3302C329.097 -59.1091 342.862 -65.5212 354.83 -78.894C366.899 -92.3812 371.647 -106.657 376.78 -121.823C381.914 -136.99 387.227 -152.818 400.32 -167.448C413.412 -182.078 428.556 -189.11 443.061 -195.889C457.567 -202.668 471.332 -209.08 483.3 -222.452C488.516 -228.282 492.818 -234.929 496.627 -242.636L503.546 -239.326C499.556 -230.958 494.845 -223.853 489.015 -217.338Z" fill="#078874" fill-opacity="0.49"/>
<path d="M460.894 -242.506C447.802 -227.876 432.659 -220.845 418.153 -214.066C403.647 -207.287 389.882 -200.875 377.914 -187.502C365.845 -174.015 361.097 -159.739 355.964 -144.572C350.83 -129.406 345.517 -113.578 332.424 -98.9478C319.332 -84.3176 304.188 -77.286 289.683 -70.5071C275.177 -63.7282 261.412 -57.3162 249.444 -43.9433C237.375 -30.4561 232.627 -16.1802 227.494 -1.01384C222.36 14.1525 217.047 29.9806 203.954 44.6107C190.862 59.2409 175.718 66.2724 161.213 73.0514C146.707 79.8303 132.942 86.2423 120.974 99.6152C108.905 113.102 104.157 127.378 99.0234 142.545C93.8902 157.711 88.5765 173.539 75.484 188.169C69.756 194.57 63.1137 200.152 55.2381 205.043L51.1838 198.533C58.5359 193.997 64.5526 188.884 69.7691 183.055C81.8388 169.568 86.5868 155.292 91.7199 140.125C96.8531 124.959 102.167 109.131 115.259 94.5009C128.352 79.8708 143.495 72.8392 158.001 66.0603C172.506 59.2814 186.272 52.8693 198.239 39.4965C210.309 26.0093 215.057 11.7333 220.19 -3.43299C225.323 -18.5993 230.637 -34.4274 243.729 -49.0575C256.822 -63.6877 271.965 -70.7192 286.471 -77.4982C300.976 -84.2771 314.742 -90.6891 326.709 -104.062C338.779 -117.549 343.527 -131.825 348.66 -146.991C353.793 -162.158 359.107 -177.986 372.2 -192.616C385.292 -207.246 400.435 -214.278 414.941 -221.057C429.447 -227.836 443.212 -234.248 455.18 -247.62C460.396 -253.45 464.698 -260.097 468.507 -267.804L475.425 -264.494C471.436 -256.126 466.725 -249.021 460.894 -242.506Z" fill="#078874" fill-opacity="0.49"/>
</svg>
