<svg width="1440" height="294" viewBox="0 0 1440 294" fill="none" xmlns="http://www.w3.org/2000/svg">
<mask id="mask0_27_468" style="mask-type:alpha" maskUnits="userSpaceOnUse" x="0" y="0" width="1440" height="294">
<rect width="1440" height="294" fill="#07A189"/>
</mask>
<g mask="url(#mask0_27_468)">
<path d="M1559.37 173.504C1538.68 196.629 1514.74 207.744 1491.81 218.459C1468.88 229.174 1447.12 239.309 1428.21 260.447C1409.13 281.765 1401.63 304.33 1393.51 328.303C1385.4 352.276 1377 377.294 1356.3 400.419C1335.61 423.544 1311.67 434.659 1288.75 445.374C1265.82 456.089 1244.06 466.224 1225.14 487.362C1206.06 508.68 1198.56 531.245 1190.45 555.218C1182.33 579.191 1173.93 604.209 1153.24 627.334C1132.54 650.459 1108.61 661.574 1085.68 672.289C1062.75 683.004 1040.99 693.139 1022.08 714.277C1003 735.595 995.494 758.16 987.38 782.133C979.266 806.106 970.867 831.124 950.173 854.249C941.119 864.366 930.62 873.19 918.171 880.92L911.763 870.63C923.384 863.461 932.894 855.379 941.139 846.165C960.217 824.847 967.722 802.282 975.836 778.309C983.95 754.337 992.349 729.318 1013.04 706.193C1033.74 683.068 1057.67 671.953 1080.6 661.238C1103.53 650.523 1125.29 640.388 1144.21 619.25C1163.28 597.932 1170.79 575.367 1178.9 551.394C1187.02 527.422 1195.41 502.403 1216.11 479.278C1236.8 456.153 1260.74 445.038 1283.67 434.323C1306.6 423.608 1328.35 413.473 1347.27 392.335C1366.35 371.017 1373.85 348.452 1381.97 324.479C1390.08 300.507 1398.48 275.488 1419.17 252.363C1439.87 229.238 1463.81 218.123 1486.73 207.408C1509.66 196.693 1531.42 186.558 1550.34 165.42C1558.58 156.206 1565.38 145.699 1571.4 133.518L1582.34 138.749C1576.03 151.976 1568.59 163.206 1559.37 173.504Z" fill="#078874" fill-opacity="0.49"/>
<path d="M1514.92 133.731C1494.23 156.856 1470.29 167.97 1447.36 178.685C1424.44 189.4 1402.68 199.536 1383.76 220.673C1364.68 241.992 1357.18 264.557 1349.06 288.53C1340.95 312.502 1332.55 337.521 1311.86 360.646C1291.16 383.771 1267.23 394.885 1244.3 405.6C1221.37 416.315 1199.61 426.451 1180.7 447.588C1161.62 468.907 1154.11 491.472 1146 515.445C1137.89 539.417 1129.49 564.436 1108.79 587.561C1088.1 610.686 1064.16 621.8 1041.23 632.515C1018.3 643.23 996.546 653.366 977.63 674.503C958.552 695.822 951.047 718.387 942.933 742.36C934.82 766.332 926.421 791.351 905.726 814.476C896.672 824.593 886.173 833.417 873.724 841.147L867.316 830.857C878.937 823.688 888.447 815.606 896.693 806.392C915.771 785.073 923.275 762.508 931.389 738.536C939.503 714.563 947.902 689.545 968.597 666.419C989.291 643.294 1013.23 632.18 1036.16 621.465C1059.08 610.75 1080.84 600.615 1099.76 579.477C1118.84 558.158 1126.34 535.593 1134.45 511.621C1142.57 487.648 1150.97 462.63 1171.66 439.505C1192.36 416.379 1216.29 405.265 1239.22 394.55C1262.15 383.835 1283.91 373.7 1302.82 352.562C1321.9 331.243 1329.41 308.678 1337.52 284.706C1345.63 260.733 1354.03 235.715 1374.73 212.59C1395.42 189.464 1419.36 178.35 1442.29 167.635C1465.22 156.92 1486.97 146.785 1505.89 125.647C1514.14 116.433 1520.94 105.926 1526.96 93.7447L1537.89 98.9759C1531.59 112.203 1524.14 123.433 1514.92 133.731Z" fill="#078874" fill-opacity="0.49"/>
<path d="M1470.48 93.9495C1449.78 117.075 1425.85 128.189 1402.92 138.904C1379.99 149.619 1358.23 159.754 1339.32 180.892C1320.24 202.211 1312.73 224.776 1304.62 248.748C1296.51 272.721 1288.11 297.739 1267.41 320.865C1246.72 343.99 1222.78 355.104 1199.85 365.819C1176.92 376.534 1155.17 386.669 1136.25 407.807C1117.17 429.126 1109.67 451.691 1101.55 475.663C1093.44 499.636 1085.04 524.654 1064.35 547.78C1043.65 570.905 1019.71 582.019 996.787 592.734C973.859 603.449 952.1 613.584 933.184 634.722C914.106 656.04 906.601 678.606 898.487 702.578C890.374 726.551 881.975 751.569 861.28 774.694C852.226 784.812 841.727 793.636 829.278 801.366L822.87 791.076C834.491 783.907 844.001 775.825 852.247 766.611C871.325 745.292 878.83 722.727 886.943 698.754C895.057 674.782 903.456 649.763 924.151 626.638C944.845 603.513 968.781 592.399 991.71 581.684C1014.64 570.969 1036.4 560.833 1055.31 539.696C1074.39 518.377 1081.9 495.812 1090.01 471.839C1098.12 447.867 1106.52 422.848 1127.22 399.723C1147.91 376.598 1171.85 365.484 1194.78 354.769C1217.7 344.054 1239.46 333.918 1258.38 312.781C1277.46 291.462 1284.96 268.897 1293.07 244.924C1301.19 220.952 1309.59 195.933 1330.28 172.808C1350.98 149.683 1374.91 138.569 1397.84 127.854C1420.77 117.139 1442.53 107.003 1461.44 85.8657C1469.69 76.6518 1476.49 66.1445 1482.51 53.9634L1493.45 59.1946C1487.14 72.4217 1479.69 83.6516 1470.48 93.9495Z" fill="#078874" fill-opacity="0.49"/>
<path d="M1426.04 54.1919C1405.34 77.317 1381.41 88.4313 1358.48 99.1464C1335.55 109.861 1313.79 119.997 1294.88 141.134C1275.8 162.453 1268.29 185.018 1260.18 208.991C1252.07 232.963 1243.67 257.982 1222.97 281.107C1202.28 304.232 1178.34 315.346 1155.41 326.061C1132.49 336.776 1110.73 346.912 1091.81 368.049C1072.73 389.368 1065.23 411.933 1057.11 435.906C1049 459.878 1040.6 484.897 1019.91 508.022C999.212 531.147 975.276 542.261 952.348 552.976C929.42 563.691 907.661 573.827 888.745 594.964C869.667 616.283 862.162 638.848 854.049 662.821C845.935 686.793 837.536 711.812 816.841 734.937C807.787 745.054 797.288 753.878 784.84 761.608L778.431 751.318C790.052 744.149 799.562 736.067 807.808 726.853C826.886 705.535 834.391 682.969 842.504 658.997C850.618 635.024 859.017 610.006 879.712 586.881C900.406 563.755 924.343 552.641 947.271 541.926C970.199 531.211 991.958 521.076 1010.87 499.938C1029.95 478.62 1037.46 456.054 1045.57 432.082C1053.68 408.109 1062.08 383.091 1082.78 359.966C1103.47 336.84 1127.41 325.726 1150.34 315.011C1173.26 304.296 1195.02 294.161 1213.94 273.023C1233.02 251.705 1240.52 229.139 1248.64 205.167C1256.75 181.194 1265.15 156.176 1285.84 133.051C1306.54 109.925 1330.47 98.8111 1353.4 88.096C1376.33 77.3809 1398.09 67.2458 1417.01 46.1081C1425.25 36.8942 1432.05 26.3868 1438.07 14.2058L1449.01 19.437C1442.7 32.664 1435.25 43.894 1426.04 54.1919Z" fill="#078874" fill-opacity="0.49"/>
<path d="M1381.59 14.4183C1360.9 37.5434 1336.96 48.6578 1314.03 59.3728C1291.1 70.0879 1269.35 80.2231 1250.43 101.361C1231.35 122.679 1223.85 145.245 1215.73 169.217C1207.62 193.19 1199.22 218.208 1178.53 241.333C1157.83 264.458 1133.9 275.573 1110.97 286.288C1088.04 297.003 1066.28 307.138 1047.36 328.276C1028.29 349.594 1020.78 372.159 1012.67 396.132C1004.55 420.105 996.155 445.123 975.461 468.248C954.766 491.373 930.83 502.488 907.902 513.203C884.973 523.918 863.215 534.053 844.299 555.191C825.221 576.509 817.716 599.074 809.602 623.047C801.489 647.02 793.089 672.038 772.395 695.163C763.341 705.28 752.842 714.104 740.393 721.834L733.985 711.545C745.606 704.375 755.116 696.293 763.362 687.079C782.439 665.761 789.944 643.196 798.058 619.223C806.172 595.251 814.571 570.232 835.265 547.107C855.96 523.982 879.896 512.867 902.825 502.152C925.753 491.437 947.511 481.302 966.427 460.164C985.505 438.846 993.01 416.281 1001.12 392.308C1009.24 368.336 1017.64 343.317 1038.33 320.192C1059.03 297.067 1082.96 285.953 1105.89 275.237C1128.82 264.522 1150.58 254.387 1169.49 233.249C1188.57 211.931 1196.08 189.366 1204.19 165.393C1212.3 141.421 1220.7 116.402 1241.4 93.277C1262.09 70.1519 1286.03 59.0375 1308.96 48.3224C1331.88 37.6073 1353.64 27.4722 1372.56 6.33445C1380.8 -2.87945 1387.6 -13.3868 1393.63 -25.5679L1404.56 -20.3366C1398.25 -7.10959 1390.81 4.12038 1381.59 14.4183Z" fill="#078874" fill-opacity="0.49"/>
<path d="M1337.15 -25.3552C1316.46 -2.23007 1292.52 8.88432 1269.59 19.5994C1246.66 30.3145 1224.91 40.4496 1205.99 61.5874C1186.91 82.9059 1179.41 105.471 1171.29 129.444C1163.18 153.416 1154.78 178.435 1134.09 201.56C1113.39 224.685 1089.46 235.799 1066.53 246.514C1043.6 257.229 1021.84 267.365 1002.92 288.502C983.847 309.821 976.342 332.386 968.228 356.359C960.114 380.331 951.715 405.35 931.021 428.475C910.326 451.6 886.39 462.714 863.462 473.429C840.533 484.144 818.775 494.28 799.859 515.417C780.781 536.736 773.276 559.301 765.162 583.274C757.049 607.246 748.65 632.265 727.955 655.39C718.901 665.507 708.402 674.331 695.953 682.061L689.545 671.771C701.166 664.602 710.676 656.52 718.922 647.306C738 625.988 745.504 603.422 753.618 579.45C761.732 555.477 770.131 530.459 790.826 507.334C811.52 484.208 835.456 473.094 858.385 462.379C881.313 451.664 903.071 441.529 921.987 420.391C941.065 399.073 948.57 376.507 956.684 352.535C964.798 328.562 973.197 303.544 993.891 280.419C1014.59 257.293 1038.52 246.179 1061.45 235.464C1084.38 224.749 1106.14 214.614 1125.05 193.476C1144.13 172.158 1151.64 149.592 1159.75 125.62C1167.86 101.647 1176.26 76.6287 1196.96 53.5036C1217.65 30.3785 1241.59 19.2641 1264.52 8.54897C1287.44 -2.16611 1309.2 -12.3012 1328.12 -33.439C1336.36 -42.6529 1343.16 -53.1602 1349.19 -65.3413L1360.12 -60.1101C1353.81 -46.883 1346.37 -35.6531 1337.15 -25.3552Z" fill="#078874" fill-opacity="0.49"/>
<path d="M1292.71 -65.1286C1272.01 -42.0035 1248.08 -30.8891 1225.15 -20.174C1202.22 -9.45895 1180.46 0.6762 1161.54 21.814C1142.47 43.1324 1134.96 65.6976 1126.85 89.6702C1118.73 113.643 1110.34 138.661 1089.64 161.786C1068.95 184.911 1045.01 196.026 1022.08 206.741C999.154 217.456 977.395 227.591 958.479 248.729C939.401 270.047 931.896 292.613 923.783 316.585C915.669 340.558 907.27 365.576 886.575 388.701C865.881 411.826 841.944 422.941 819.016 433.656C796.088 444.371 774.33 454.506 755.413 475.644C736.336 496.962 728.831 519.528 720.717 543.5C712.603 567.473 704.204 592.491 683.51 615.616C674.456 625.734 663.956 634.557 651.508 642.287L645.1 631.998C656.721 624.829 666.231 616.746 674.476 607.533C693.554 586.214 701.059 563.649 709.173 539.676C717.287 515.704 725.686 490.685 746.38 467.56C767.075 444.435 791.011 433.321 813.939 422.606C836.867 411.89 858.626 401.755 877.542 380.618C896.62 359.299 904.125 336.734 912.239 312.761C920.352 288.789 928.751 263.77 949.446 240.645C970.14 217.52 994.077 206.406 1017 195.691C1039.93 184.975 1061.69 174.84 1080.61 153.703C1099.69 132.384 1107.19 109.819 1115.3 85.8464C1123.42 61.8738 1131.82 36.8552 1152.51 13.7302C1173.21 -9.39494 1197.14 -20.5094 1220.07 -31.2245C1243 -41.9395 1264.76 -52.0746 1283.67 -73.2124C1291.92 -82.4263 1298.72 -92.9336 1304.74 -105.115L1315.68 -99.8835C1309.37 -86.6565 1301.92 -75.4265 1292.71 -65.1286Z" fill="#078874" fill-opacity="0.49"/>
<path d="M1248.26 -104.902C1227.57 -81.7769 1203.63 -70.6626 1180.7 -59.9475C1157.77 -49.2324 1136.01 -39.0972 1117.1 -17.9595C1098.02 3.35899 1090.52 25.9242 1082.4 49.8967C1074.29 73.8693 1065.89 98.8879 1045.19 122.013C1024.5 145.138 1000.56 156.252 977.635 166.968C954.707 177.683 932.949 187.818 914.032 208.956C894.955 230.274 887.45 252.839 879.336 276.812C871.222 300.784 862.823 325.803 842.129 348.928C821.434 372.053 797.498 383.167 774.57 393.883C751.641 404.598 729.883 414.733 710.967 435.87C691.889 457.189 684.384 479.754 676.27 503.727C668.157 527.699 659.757 552.718 639.063 575.843C630.009 585.96 619.51 594.784 607.061 602.514L600.653 592.224C612.274 585.055 621.784 576.973 630.03 567.759C649.107 546.441 656.612 523.875 664.726 499.903C672.84 475.93 681.239 450.912 701.933 427.787C722.628 404.662 746.564 393.547 769.493 382.832C792.421 372.117 814.179 361.982 833.095 340.844C852.173 319.526 859.678 296.96 867.792 272.988C875.906 249.015 884.305 223.997 904.999 200.872C925.694 177.747 949.63 166.632 972.558 155.917C995.486 145.202 1017.24 135.067 1036.16 113.929C1055.24 92.6107 1062.74 70.0455 1070.86 46.0729C1078.97 22.1004 1087.37 -2.91819 1108.06 -26.0433C1128.76 -49.1684 1152.7 -60.2828 1175.62 -70.9979C1198.55 -81.713 1220.31 -91.8481 1239.23 -112.986C1247.47 -122.2 1254.27 -132.707 1260.29 -144.888L1271.23 -139.657C1264.92 -126.43 1257.48 -115.2 1248.26 -104.902Z" fill="#078874" fill-opacity="0.49"/>
<path d="M1203.82 -144.675C1183.13 -121.55 1159.19 -110.436 1136.26 -99.7209C1113.33 -89.0058 1091.57 -78.8707 1072.66 -57.7329C1053.58 -36.4145 1046.07 -13.8492 1037.96 10.1233C1029.85 34.0959 1021.45 59.1144 1000.75 82.2395C980.059 105.365 956.123 116.479 933.195 127.194C910.267 137.909 888.508 148.044 869.592 169.182C850.514 190.501 843.009 213.066 834.896 237.038C826.782 261.011 818.383 286.029 797.688 309.155C776.994 332.28 753.057 343.394 730.129 354.109C707.201 364.824 685.442 374.959 666.526 396.097C647.448 417.415 639.943 439.981 631.83 463.953C623.716 487.926 615.317 512.944 594.622 536.069C585.569 546.187 575.069 555.011 562.621 562.741L556.212 552.451C567.834 545.282 577.344 537.2 585.589 527.986C604.667 506.667 612.172 484.102 620.286 460.129C628.399 436.157 636.798 411.138 657.493 388.013C678.188 364.888 702.124 353.774 725.052 343.059C747.98 332.344 769.739 322.208 788.655 301.071C807.733 279.752 815.238 257.187 823.351 233.214C831.465 209.242 839.864 184.223 860.559 161.098C881.253 137.973 905.19 126.859 928.118 116.144C951.046 105.429 972.804 95.2935 991.721 74.1557C1010.8 52.8372 1018.3 30.272 1026.42 6.29948C1034.53 -17.6731 1042.93 -42.6916 1063.62 -65.8167C1084.32 -88.9418 1108.26 -100.056 1131.18 -110.771C1154.11 -121.486 1175.87 -131.622 1194.79 -152.759C1203.03 -161.973 1209.83 -172.481 1215.85 -184.662L1226.79 -179.43C1220.48 -166.203 1213.04 -154.973 1203.82 -144.675Z" fill="#078874" fill-opacity="0.49"/>
<path d="M1159.37 -184.449C1138.68 -161.324 1114.74 -150.209 1091.82 -139.494C1068.89 -128.779 1047.13 -118.644 1028.21 -97.5063C1009.13 -76.1879 1001.63 -53.6227 993.516 -29.6501C985.402 -5.67757 977.003 19.341 956.309 42.4661C935.614 65.5912 911.678 76.7056 888.749 87.4207C865.821 98.1357 844.063 108.271 825.147 129.409C806.069 150.727 798.564 173.292 790.45 197.265C782.336 221.237 773.937 246.256 753.243 269.381C732.548 292.506 708.612 303.621 685.684 314.336C662.756 325.051 640.997 335.186 622.081 356.324C603.003 377.642 595.498 400.207 587.384 424.18C579.271 448.152 570.872 473.171 550.177 496.296C541.123 506.413 530.624 515.237 518.175 522.967L511.767 512.677C523.388 505.508 532.898 497.426 541.144 488.212C560.222 466.894 567.727 444.329 575.84 420.356C583.954 396.383 592.353 371.365 613.048 348.24C633.742 325.115 657.678 314 680.607 303.285C703.535 292.57 725.293 282.435 744.21 261.297C763.287 239.979 770.792 217.414 778.906 193.441C787.02 169.468 795.419 144.45 816.113 121.325C836.808 98.1997 860.744 87.0853 883.672 76.3703C906.601 65.6552 928.359 55.52 947.275 34.3823C966.353 13.0638 973.858 -9.50138 981.972 -33.4739C990.085 -57.4465 998.484 -82.4651 1019.18 -105.59C1039.87 -128.715 1063.81 -139.83 1086.74 -150.545C1109.67 -161.26 1131.42 -171.395 1150.34 -192.533C1158.59 -201.747 1165.39 -212.254 1171.41 -224.435L1182.34 -219.204C1176.04 -205.977 1168.59 -194.747 1159.37 -184.449Z" fill="#078874" fill-opacity="0.49"/>
<path d="M1114.93 -224.218C1094.24 -201.093 1070.3 -189.979 1047.38 -179.264C1024.45 -168.549 1002.69 -158.414 983.772 -137.276C964.695 -115.957 957.19 -93.3922 949.076 -69.4197C940.962 -45.4471 932.563 -20.4285 911.869 2.69655C891.174 25.8216 867.238 36.936 844.31 47.6511C821.381 58.3662 799.623 68.5013 780.707 89.6391C761.629 110.958 754.124 133.523 746.01 157.495C737.896 181.468 729.497 206.486 708.803 229.612C688.108 252.737 664.172 263.851 641.244 274.566C618.316 285.281 596.557 295.416 577.641 316.554C558.563 337.873 551.058 360.438 542.944 384.41C534.831 408.383 526.432 433.401 505.737 456.527C496.683 466.644 486.184 475.468 473.735 483.198L467.327 472.908C478.948 465.739 488.458 457.657 496.704 448.443C515.782 427.124 523.287 404.559 531.4 380.586C539.514 356.614 547.913 331.595 568.608 308.47C589.302 285.345 613.239 274.231 636.167 263.516C659.095 252.801 680.853 242.666 699.77 221.528C718.847 200.209 726.352 177.644 734.466 153.672C742.58 129.699 750.979 104.68 771.673 81.5553C792.368 58.4302 816.304 47.3158 839.232 36.6007C862.161 25.8856 883.919 15.7505 902.835 -5.38727C921.913 -26.7057 929.418 -49.2709 937.532 -73.2435C945.645 -97.216 954.045 -122.235 974.739 -145.36C995.434 -168.485 1019.37 -179.599 1042.3 -190.314C1065.23 -201.029 1086.98 -211.164 1105.9 -232.302C1114.15 -241.516 1120.95 -252.023 1126.97 -264.205L1137.9 -258.973C1131.6 -245.746 1124.15 -234.516 1114.93 -224.218Z" fill="#078874" fill-opacity="0.49"/>
<path d="M1070.49 -263.996C1049.79 -240.871 1025.86 -229.756 1002.93 -219.041C980.001 -208.326 958.242 -198.191 939.326 -177.053C920.248 -155.735 912.743 -133.17 904.63 -109.197C896.516 -85.2244 888.117 -60.2059 867.422 -37.0808C846.728 -13.9557 822.791 -2.8413 799.863 7.87378C776.935 18.5889 755.177 28.724 736.26 49.8618C717.183 71.1802 709.678 93.7454 701.564 117.718C693.45 141.691 685.051 166.709 664.357 189.834C643.662 212.959 619.726 224.074 596.798 234.789C573.869 245.504 552.111 255.639 533.195 276.777C514.117 298.095 506.612 320.66 498.498 344.633C490.384 368.606 481.985 393.624 461.291 416.749C452.237 426.866 441.738 435.69 429.289 443.42L422.881 433.13C434.502 425.961 444.012 417.879 452.258 408.665C471.335 387.347 478.84 364.782 486.954 340.809C495.068 316.837 503.467 291.818 524.161 268.693C544.856 245.568 568.792 234.453 591.72 223.738C614.649 213.023 636.407 202.888 655.323 181.75C674.401 160.432 681.906 137.867 690.02 113.894C698.133 89.9216 706.533 64.903 727.227 41.7779C747.922 18.6529 771.858 7.53845 794.786 -3.17663C817.714 -13.8917 839.473 -24.0268 858.389 -45.1646C877.467 -66.4831 884.972 -89.0483 893.086 -113.021C901.199 -136.993 909.598 -162.012 930.293 -185.137C950.987 -208.262 974.924 -219.377 997.852 -230.092C1020.78 -240.807 1042.54 -250.942 1061.45 -272.08C1069.7 -281.294 1076.5 -291.801 1082.52 -303.982L1093.46 -298.751C1087.15 -285.524 1079.7 -274.294 1070.49 -263.996Z" fill="#078874" fill-opacity="0.49"/>
<path d="M1026.04 -303.765C1005.35 -280.64 981.411 -269.526 958.483 -258.811C935.555 -248.096 913.796 -237.961 894.88 -216.823C875.802 -195.504 868.298 -172.939 860.184 -148.967C852.07 -124.994 843.671 -99.9755 822.976 -76.8504C802.282 -53.7254 778.346 -42.611 755.417 -31.8959C732.489 -21.1808 710.731 -11.0457 691.815 10.0921C672.737 31.4106 665.232 53.9758 657.118 77.9483C649.004 101.921 640.605 126.939 619.911 150.065C599.216 173.19 575.28 184.304 552.352 195.019C529.423 205.734 507.665 215.869 488.749 237.007C469.671 258.326 462.166 280.891 454.052 304.863C445.939 328.836 437.54 353.854 416.845 376.98C407.791 387.097 397.292 395.921 384.843 403.651L378.435 393.361C389.39 386.572 399.081 378.652 407.327 369.438C426.405 348.119 433.91 325.554 442.023 301.581C450.137 277.609 458.536 252.59 479.231 229.465C499.925 206.34 523.861 195.226 546.79 184.511C569.718 173.796 591.476 163.66 610.392 142.523C629.47 121.204 636.975 98.6391 645.089 74.6665C653.203 50.6939 661.602 25.6754 682.296 2.55029C702.991 -20.5748 726.927 -31.6892 749.855 -42.4043C772.784 -53.1194 794.542 -63.2545 813.458 -84.3923C832.536 -105.711 840.041 -128.276 848.155 -152.249C856.268 -176.221 864.667 -201.24 885.362 -224.365C906.057 -247.49 929.993 -258.604 952.921 -269.319C975.849 -280.034 997.608 -290.169 1016.52 -311.307C1024.77 -320.521 1031.57 -331.028 1037.59 -343.21L1048.53 -337.978C1042.7 -325.293 1035.26 -314.063 1026.04 -303.765Z" fill="#078874" fill-opacity="0.49"/>
<path d="M981.604 -343.535C960.909 -320.41 936.973 -309.295 914.045 -298.58C891.116 -287.865 869.358 -277.73 850.442 -256.592C831.364 -235.274 823.859 -212.709 815.745 -188.736C807.632 -164.764 799.233 -139.745 778.538 -116.62C757.843 -93.4949 733.907 -82.3805 710.979 -71.6654C688.051 -60.9503 666.292 -50.8152 647.376 -29.6774C628.298 -8.35897 620.793 14.2062 612.68 38.1788C604.566 62.1514 596.167 87.1699 575.472 110.295C554.778 133.42 530.841 144.534 507.913 155.25C484.985 165.965 463.227 176.1 444.31 197.238C425.233 218.556 417.728 241.121 409.614 265.094C401.5 289.066 393.101 314.085 372.407 337.21C363.353 347.327 352.853 356.151 340.405 363.881L333.996 353.591C345.618 346.422 355.128 338.34 363.373 329.126C382.451 307.808 389.956 285.242 398.07 261.27C406.183 237.297 414.583 212.279 435.277 189.154C455.972 166.029 479.908 154.914 502.836 144.199C525.764 133.484 547.523 123.349 566.439 102.211C585.517 80.8928 593.022 58.3275 601.136 34.355C609.249 10.3824 617.648 -14.6361 638.343 -37.7612C659.037 -60.8863 682.974 -72.0007 705.902 -82.7158C728.83 -93.4309 750.589 -103.566 769.505 -124.704C788.583 -146.022 796.088 -168.587 804.201 -192.56C812.315 -216.533 820.714 -241.551 841.409 -264.676C862.103 -287.801 886.039 -298.916 908.968 -309.631C931.896 -320.346 953.654 -330.481 972.57 -351.619C980.816 -360.833 987.616 -371.34 993.637 -383.521L1004.57 -378.29C998.266 -365.063 990.819 -353.833 981.604 -343.535Z" fill="#078874" fill-opacity="0.49"/>
<path d="M937.156 -383.312C916.461 -360.187 892.525 -349.073 869.597 -338.358C846.669 -327.643 824.91 -317.507 805.994 -296.37C786.916 -275.051 779.411 -252.486 771.298 -228.513C763.184 -204.541 754.785 -179.522 734.09 -156.397C713.396 -133.272 689.459 -122.158 666.531 -111.443C643.603 -100.728 621.844 -90.5924 602.928 -69.4546C583.851 -48.1362 576.346 -25.571 568.232 -1.59843C560.118 22.3741 551.719 47.3927 531.024 70.5178C510.33 93.6429 486.394 104.757 463.465 115.472C440.537 126.187 418.779 136.323 399.863 157.46C380.785 178.779 373.28 201.344 365.166 225.317C357.052 249.289 348.653 274.308 327.959 297.433C318.905 307.55 308.406 316.374 295.957 324.104L289.549 313.814C301.17 306.645 310.68 298.563 318.926 289.349C338.003 268.03 345.508 245.465 353.622 221.493C361.736 197.52 370.135 172.502 390.829 149.377C411.524 126.251 435.46 115.137 458.388 104.422C481.317 93.7069 503.075 83.5718 521.991 62.434C541.069 41.1155 548.574 18.5503 556.688 -5.42225C564.801 -29.3948 573.201 -54.4134 593.895 -77.5385C614.59 -100.664 638.526 -111.778 661.454 -122.493C684.382 -133.208 706.141 -143.343 725.057 -164.481C744.135 -185.799 751.64 -208.365 759.753 -232.337C767.867 -256.31 776.266 -281.328 796.961 -304.453C817.655 -327.579 841.592 -338.693 864.52 -349.408C887.448 -360.123 909.207 -370.258 928.123 -391.396C936.368 -400.61 943.168 -411.117 949.189 -423.298L960.124 -418.067C953.818 -404.84 946.372 -393.61 937.156 -383.312Z" fill="#078874" fill-opacity="0.49"/>
</g>
</svg>
