<svg width="23" height="16" viewBox="0 0 23 16" fill="none" xmlns="http://www.w3.org/2000/svg">
<path d="M21.4184 5.82812C21.1989 5.82812 20.9883 5.91533 20.8331 6.07055C20.6779 6.22577 20.5907 6.4363 20.5907 6.65582V13.2774C20.5907 13.4969 20.5035 13.7074 20.3483 13.8626C20.193 14.0178 19.9825 14.105 19.763 14.105H3.20915C2.98963 14.105 2.77911 14.0178 2.62388 13.8626C2.46866 13.7074 2.38146 13.4969 2.38146 13.2774V6.65582C2.38146 6.4363 2.29426 6.22577 2.13903 6.07055C1.98381 5.91533 1.77328 5.82812 1.55377 5.82812C1.33425 5.82812 1.12372 5.91533 0.9685 6.07055C0.813277 6.22577 0.726074 6.4363 0.726074 6.65582V13.2774C0.726654 13.9357 0.988643 14.5668 1.45444 15.0321C1.91966 15.4979 2.55082 15.7599 3.20915 15.7604H19.763C20.4213 15.7599 21.0525 15.4979 21.5177 15.0321C21.9835 14.5668 22.2455 13.9357 22.2461 13.2774V6.65582C22.2461 6.4363 22.1589 6.22577 22.0036 6.07055C21.8484 5.91533 21.6379 5.82812 21.4184 5.82812Z" fill="#07A189"/>
<path d="M10.9894 10.63C11.1327 10.7375 11.3069 10.7956 11.486 10.7956C11.6651 10.7956 11.8394 10.7375 11.9826 10.63L21.7577 3.2967C21.9102 3.1817 22.0182 3.01752 22.0635 2.83197C22.1087 2.64642 22.0884 2.45092 22.006 2.27864C21.8827 2.02397 21.7177 1.79176 21.5177 1.59165C21.0524 1.12585 20.4213 0.863861 19.7629 0.863281H3.2091C2.55077 0.863861 1.91962 1.12585 1.4544 1.59165C1.25439 1.79176 1.08932 2.02397 0.966057 2.27864C0.883632 2.45092 0.863327 2.64642 0.908583 2.83197C0.953839 3.01752 1.06187 3.1817 1.21436 3.2967L10.9894 10.63ZM3.2091 2.51867H19.7629C19.8397 2.50658 19.9179 2.50658 19.9947 2.51867L11.486 8.93328L2.97735 2.51867C3.05413 2.50658 3.13232 2.50658 3.2091 2.51867Z" fill="#07A189"/>
</svg>
