<svg width="28" height="26" viewBox="0 0 28 26" fill="none" xmlns="http://www.w3.org/2000/svg">
<path d="M27 0H1C0.448 0 0 0.448 0 1C0 1.552 0.448 2 1 2H26V18H13C12.959 18 12.924 18.018 12.884 18.023C12.817 18.031 12.754 18.041 12.689 18.062C12.621 18.084 12.562 18.115 12.502 18.151C12.469 18.17 12.431 18.176 12.4 18.2L6 23V19C6 18.447 5.552 18 5 18H2V5C2 4.448 1.552 4 1 4C0.448 4 0 4.448 0 5V19C0 19.553 0.448 20 1 20H4V25C4 25.379 4.214 25.725 4.553 25.895C4.694 25.965 4.848 26 5 26C5.212 26 5.423 25.933 5.6 25.8L13.333 20H27C27.553 20 28 19.553 28 19V1C28 0.448 27.553 0 27 0Z" fill="#0AB79B"/>
</svg>
