<svg width="19" height="19" viewBox="0 0 19 19" fill="none" xmlns="http://www.w3.org/2000/svg">
<path d="M17.601 8.17613H10.869V1.44407C10.869 0.700849 10.2658 0.0976562 9.52255 0.0976562C8.77933 0.0976562 8.17613 0.700849 8.17613 1.44407V8.17613H1.44407C0.700849 8.17613 0.0976562 8.77933 0.0976562 9.52255C0.0976562 10.2658 0.700849 10.869 1.44407 10.869H8.17613V17.601C8.17613 18.3442 8.77933 18.9474 9.52255 18.9474C10.2658 18.9474 10.869 18.3442 10.869 17.601V10.869H17.601C18.3442 10.869 18.9474 10.2658 18.9474 9.52255C18.9474 8.77933 18.3442 8.17613 17.601 8.17613Z" fill="black"/>
</svg>
