<svg width="77" height="90" viewBox="0 0 77 90" fill="none" xmlns="http://www.w3.org/2000/svg">
<path d="M65.1664 45.8053C64.8453 45.4865 64.4645 45.234 64.0458 45.0622C63.627 44.8905 63.1786 44.803 62.726 44.8046C62.2735 44.8062 61.8257 44.8969 61.4082 45.0716C60.9907 45.2462 60.6117 45.5014 60.2928 45.8226C59.9739 46.1437 59.7214 46.5245 59.5497 46.9432C59.378 47.3619 59.2904 47.8104 59.292 48.2629C59.2936 48.7155 59.3844 49.1633 59.559 49.5808C59.7337 49.9983 59.9889 50.3773 60.31 50.6962C63.2244 53.5798 65.5379 57.0128 67.1164 60.7966C68.695 64.5804 69.5072 68.6397 69.5062 72.7395C69.5062 76.9415 57.4168 83.0723 38.5078 83.0723C19.5987 83.0723 7.50936 76.9415 7.50936 72.7395C7.50389 68.6667 8.30109 64.6327 9.85538 60.8681C11.4097 57.1036 13.6906 53.6822 16.5678 50.7995C17.2093 50.1542 17.5694 49.2812 17.5694 48.3713C17.5694 47.4614 17.2093 46.5884 16.5678 45.9431C15.9225 45.3016 15.0495 44.9415 14.1396 44.9415C13.2297 44.9415 12.3567 45.3016 11.7114 45.9431C8.18135 49.4534 5.38333 53.6295 3.47953 58.2294C1.57573 62.8293 0.604048 67.7613 0.620819 72.7395C0.620819 83.9334 20.1498 89.9609 38.5078 89.9609C56.8657 89.9609 76.3948 83.9334 76.3948 72.7395C76.408 67.729 75.4217 62.7661 73.4938 58.1414C71.5658 53.5166 68.7348 49.3228 65.1664 45.8053Z" fill="#07A189" fill-opacity="0.44"/>
<path d="M38.5076 48.6221C43.2761 48.6221 47.9375 47.2081 51.9023 44.5589C55.8672 41.9097 58.9574 38.1442 60.7822 33.7387C62.607 29.3332 63.0845 24.4855 62.1542 19.8086C61.2239 15.1318 58.9277 10.8358 55.5559 7.46398C52.184 4.09215 47.8881 1.7959 43.2112 0.865619C38.5343 -0.064666 33.6866 0.41279 29.2811 2.23761C24.8756 4.06243 21.1102 7.15266 18.461 11.1175C15.8117 15.0824 14.3977 19.7438 14.3977 24.5122C14.3977 30.9066 16.9378 37.039 21.4593 41.5605C25.9808 46.082 32.1133 48.6221 38.5076 48.6221ZM38.5076 7.29089C41.9137 7.29089 45.2432 8.30091 48.0753 10.1932C50.9073 12.0855 53.1146 14.7751 54.418 17.9219C55.7215 21.0687 56.0625 24.5313 55.398 27.872C54.7336 31.2126 53.0934 34.2811 50.6849 36.6896C48.2765 39.098 45.2079 40.7382 41.8673 41.4027C38.5267 42.0672 35.0641 41.7261 31.9173 40.4227C28.7705 39.1193 26.0809 36.9119 24.1886 34.0799C22.2963 31.2479 21.2862 27.9183 21.2862 24.5122C21.2862 19.9449 23.1006 15.5645 26.3303 12.3349C29.5599 9.10528 33.9402 7.29089 38.5076 7.29089Z" fill="#07A189" fill-opacity="0.44"/>
</svg>
