<svg width="10" height="18" viewBox="0 0 10 18" fill="none" xmlns="http://www.w3.org/2000/svg">
<path d="M0.288954 17.4614C0.0780024 17.1552 -0.02356 16.7613 0.00639279 16.3656C0.0363456 15.97 0.195386 15.6045 0.448868 15.3489L6.79677 9.00008L0.448972 2.65115C0.194496 2.39629 0.0348126 2.03055 0.00505146 1.6344C-0.0247096 1.23825 0.0778887 0.844142 0.290276 0.538769C0.502664 0.233396 0.807443 0.0417752 1.13757 0.00606164C1.46769 -0.0296519 1.79611 0.0934671 2.05059 0.348334L9.55078 7.84866C9.69139 7.98936 9.80451 8.16543 9.88214 8.3644C9.95976 8.56337 10 8.78038 10 9.00007C10 9.21977 9.95976 9.43678 9.88214 9.63575C9.80451 9.83472 9.69139 10.0108 9.55078 10.1515L2.05048 17.6518C1.79575 17.9066 1.46717 18.0296 1.13689 17.9939C0.806613 17.9582 0.501645 17.7667 0.288954 17.4614Z" fill="black"/>
</svg>
