<svg width="9" height="14" viewBox="0 0 9 14" fill="none" xmlns="http://www.w3.org/2000/svg">
<path d="M9 3.40057V4.41477C9 4.50758 8.96993 4.58381 8.9098 4.64347C8.84967 4.70312 8.77283 4.73295 8.67929 4.73295H6.99555C6.84187 5.6875 6.41091 6.46307 5.70267 7.05966C4.99443 7.65625 4.07238 8.02083 2.93653 8.15341C4.05234 9.33333 5.58575 11.1098 7.53675 13.483C7.63029 13.589 7.64365 13.7017 7.57684 13.821C7.52339 13.9403 7.4265 14 7.28619 14H5.33185C5.22494 14 5.14143 13.9602 5.08129 13.8807C3.03675 11.4479 1.37305 9.5554 0.0902004 8.20312C0.0300668 8.14347 0 8.07055 0 7.98438V6.72159C0 6.63542 0.0317372 6.56084 0.0952116 6.49787C0.158686 6.4349 0.233853 6.40341 0.320713 6.40341H1.44321C2.32517 6.40341 3.03508 6.26089 3.57294 5.97585C4.1108 5.69081 4.45323 5.27652 4.60022 4.73295H0.320713C0.227171 4.73295 0.150334 4.70312 0.0902004 4.64347C0.0300668 4.58381 0 4.50758 0 4.41477V3.40057C0 3.30777 0.0300668 3.23153 0.0902004 3.17188C0.150334 3.11222 0.227171 3.08239 0.320713 3.08239H4.45991C4.07906 2.33333 3.18374 1.95881 1.77394 1.95881H0.320713C0.233853 1.95881 0.158686 1.92732 0.0952116 1.86435C0.0317372 1.80137 0 1.7268 0 1.64062V0.318182C0 0.225379 0.0300668 0.149148 0.0902004 0.0894886C0.150334 0.0298295 0.227171 0 0.320713 0H8.65924C8.75278 0 8.82962 0.0298295 8.88975 0.0894886C8.94989 0.149148 8.97996 0.225379 8.97996 0.318182V1.33239C8.97996 1.42519 8.94989 1.50142 8.88975 1.56108C8.82962 1.62074 8.75278 1.65057 8.65924 1.65057H6.32405C6.63808 2.05492 6.85189 2.5322 6.96548 3.08239H8.67929C8.77283 3.08239 8.84967 3.11222 8.9098 3.17188C8.96993 3.23153 9 3.30777 9 3.40057Z" fill="black"/>
</svg>
