<svg width="22" height="21" viewBox="0 0 22 21" fill="none" xmlns="http://www.w3.org/2000/svg">
<path d="M15.4852 13.5079L21.0257 19.0587C21.1928 19.2566 21.2791 19.5102 21.2673 19.7689C21.2555 20.0275 21.1465 20.2723 20.9621 20.4541C20.7777 20.6359 20.5315 20.7414 20.2727 20.7495C20.0138 20.7576 19.7615 20.6677 19.566 20.4978L14.0358 14.9676C12.3836 16.251 10.3044 16.8565 8.22147 16.6607C6.13855 16.465 4.20855 15.4827 2.82446 13.9138C1.44036 12.345 0.706251 10.3077 0.771594 8.21657C0.836937 6.12549 1.69682 4.13793 3.17616 2.65859C4.65551 1.17924 6.64307 0.319359 8.73415 0.254016C10.8252 0.188673 12.8626 0.922786 14.4314 2.30688C16.0002 3.69097 16.9825 5.62097 17.1783 7.70389C17.3741 9.78682 16.7686 11.866 15.4852 13.5182V13.5079ZM8.98868 14.6387C10.6244 14.6387 12.1932 13.9889 13.3498 12.8322C14.5064 11.6756 15.1562 10.1068 15.1562 8.4711C15.1562 6.83537 14.5064 5.26662 13.3498 4.10998C12.1932 2.95334 10.6244 2.30355 8.98868 2.30355C7.35294 2.30355 5.7842 2.95334 4.62756 4.10998C3.47092 5.26662 2.82112 6.83537 2.82112 8.4711C2.82112 10.1068 3.47092 11.6756 4.62756 12.8322C5.7842 13.9889 7.35294 14.6387 8.98868 14.6387Z" fill="black"/>
</svg>
