<svg width="23" height="23" viewBox="0 0 23 23" fill="none" xmlns="http://www.w3.org/2000/svg">
<path d="M16.5124 14.8748L22.7286 21.1025C22.9161 21.3244 23.0129 21.609 22.9997 21.8992C22.9865 22.1894 22.8642 22.464 22.6573 22.668C22.4504 22.8719 22.1741 22.9903 21.8838 22.9994C21.5934 23.0085 21.3102 22.9077 21.091 22.7171L14.8863 16.5124C13.0326 17.9524 10.6998 18.6317 8.3629 18.4121C6.02596 18.1924 3.8606 17.0903 2.30772 15.3302C0.754833 13.57 -0.0688059 11.2842 0.00450554 8.93811C0.077817 6.59201 1.04257 4.36206 2.70232 2.70232C4.36206 1.04257 6.59201 0.077817 8.93811 0.00450554C11.2842 -0.0688059 13.57 0.754833 15.3302 2.30772C17.0903 3.8606 18.1924 6.02596 18.4121 8.3629C18.6317 10.6998 17.9524 13.0326 16.5124 14.8863V14.8748ZM9.22368 16.1434C11.0589 16.1434 12.819 15.4143 14.1166 14.1166C15.4143 12.819 16.1434 11.0589 16.1434 9.22368C16.1434 7.38846 15.4143 5.62841 14.1166 4.33071C12.819 3.03302 11.0589 2.30398 9.22368 2.30398C7.38846 2.30398 5.62841 3.03302 4.33071 4.33071C3.03302 5.62841 2.30398 7.38846 2.30398 9.22368C2.30398 11.0589 3.03302 12.819 4.33071 14.1166C5.62841 15.4143 7.38846 16.1434 9.22368 16.1434V16.1434Z" fill="white"/>
</svg>
