<svg width="42" height="42" viewBox="0 0 42 42" fill="none" xmlns="http://www.w3.org/2000/svg">
<path fill-rule="evenodd" clip-rule="evenodd" d="M36.8686 0C39.7007 0 42 2.29934 42 5.13138V36.8686C42 39.7007 39.7007 42 36.8686 42H5.13138C2.29934 42 0 39.7007 0 36.8686V5.13138C0 2.29934 2.29925 0 5.13138 0H36.8686V0ZM16.0387 34.8259C27.1899 34.8259 33.2872 25.5856 33.2872 17.5773C33.2872 17.3134 33.2872 17.0493 33.2747 16.7979C34.4564 15.943 35.4873 14.8744 36.3045 13.6549C35.2233 14.1327 34.0541 14.4596 32.8221 14.6104C34.0793 13.8561 35.0347 12.6743 35.4873 11.2537C34.3182 11.9451 33.0232 12.4481 31.6404 12.7246C30.534 11.5429 28.9625 10.8137 27.2151 10.8137C23.8709 10.8137 21.1554 13.5293 21.1554 16.8733C21.1554 17.3511 21.2057 17.8162 21.3189 18.2562C16.2775 18.0048 11.8146 15.591 8.82246 11.92C8.30698 12.8126 8.00527 13.8561 8.00527 14.9624C8.00527 17.0619 9.07389 18.9226 10.7082 20.0037C9.71504 19.9785 8.78473 19.702 7.96753 19.2494V19.3248C7.96753 22.2666 10.0545 24.7056 12.8329 25.2713C12.33 25.4096 11.7894 25.4851 11.2362 25.4851C10.8465 25.4851 10.4694 25.4473 10.0922 25.3719C10.8591 27.7857 13.0969 29.5331 15.7495 29.5834C13.6752 31.2053 11.0603 32.1732 8.21904 32.1732C7.72874 32.1732 7.25099 32.1481 6.77324 32.0852C9.42588 33.8202 12.6191 34.8259 16.0387 34.8259Z" fill="black"/>
</svg>
