<svg width="15" height="19" viewBox="0 0 15 19" fill="none" xmlns="http://www.w3.org/2000/svg">
<path d="M7.5 0C4.91934 0 2.8125 2.10684 2.8125 4.6875V7.5C1.04667 7.5 0 8.86825 0 10.155V16.0931C0 17.5485 1.20151 18.75 2.65686 18.75H12.3431C13.7985 18.75 15 17.5485 15 16.0931V10.155C15 8.69968 13.7985 7.5 12.3431 7.5H4.6875V4.6875C4.6875 3.11316 5.92566 1.875 7.5 1.875C9.07434 1.875 10.3125 3.11316 10.3125 4.6875C10.3125 5.20526 10.7322 5.625 11.25 5.625C11.7678 5.625 12.1875 5.20526 12.1875 4.6875C12.1875 2.10684 10.0807 0 7.5 0ZM2.65686 9.375H12.3431C12.7922 9.375 13.125 9.70599 13.125 10.155V16.0931C13.125 16.5422 12.7922 16.875 12.3431 16.875H2.65686C2.20783 16.875 1.875 16.5422 1.875 16.0931V10.155C1.875 9.70599 2.20783 9.375 2.65686 9.375Z" fill="#07A189"/>
</svg>
