<svg width="19" height="21" viewBox="0 0 19 21" fill="#000" xmlns="http://www.w3.org/2000/svg">
<path d="M9.13154 10.9584C8.04786 10.9584 6.98851 10.637 6.08746 10.035C5.18641 9.43292 4.48413 8.57719 4.06943 7.57599C3.65472 6.5748 3.54621 5.47312 3.75763 4.41026C3.96904 3.3474 4.49089 2.3711 5.25716 1.60482C6.02344 0.838542 6.99974 0.3167 8.0626 0.105284C9.12546 -0.106132 10.2271 0.00237406 11.2283 0.417081C12.2295 0.831789 13.0853 1.53407 13.6873 2.43512C14.2894 3.33617 14.6107 4.39551 14.6107 5.4792C14.6107 6.93237 14.0335 8.32602 13.0059 9.35357C11.9784 10.3811 10.5847 10.9584 9.13154 10.9584ZM9.13154 1.8264C8.40909 1.8264 7.70286 2.04063 7.10216 2.44201C6.50146 2.84338 6.03327 3.41387 5.7568 4.08133C5.48032 4.74879 5.40799 5.48325 5.54893 6.19182C5.68988 6.9004 6.03777 7.55126 6.54862 8.06211C7.05948 8.57297 7.71034 8.92086 8.41892 9.06181C9.12749 9.20275 9.86194 9.13041 10.5294 8.85394C11.1969 8.57747 11.7674 8.10928 12.1687 7.50858C12.5701 6.90788 12.7843 6.20165 12.7843 5.4792C12.7843 4.51042 12.3995 3.58131 11.7145 2.89628C11.0294 2.21125 10.1003 1.8264 9.13154 1.8264Z"/>
<path d="M0 20.9992H1.8264V18.2596C1.8264 17.0486 2.30746 15.8872 3.16375 15.0309C4.02004 14.1746 5.18142 13.6936 6.39239 13.6936H11.8716C12.4712 13.6936 13.0649 13.8117 13.6189 14.0412C14.1729 14.2706 14.6762 14.6069 15.1002 15.0309C15.5242 15.4549 15.8606 15.9583 16.09 16.5122C16.3195 17.0662 16.4376 17.66 16.4376 18.2596V20.9992H18.264V18.2596C18.264 16.5642 17.5905 14.9383 16.3917 13.7395C15.1929 12.5407 13.567 11.8672 11.8716 11.8672H6.39239C4.69703 11.8672 3.0711 12.5407 1.87229 13.7395C0.673483 14.9383 0 16.5642 0 18.2596V20.9992Z" />
</svg>
